<?xml version="1.0" encoding="UTF-8"?>
<!DOCTYPE svg PUBLIC "-//W3C//DTD SVG 1.1//EN" "http://www.w3.org/Graphics/SVG/1.1/DTD/svg11.dtd">
<!-- Creator: CorelDRAW -->
<svg xmlns="http://www.w3.org/2000/svg" xml:space="preserve" width="135.467mm" height="89.785mm" version="1.1" style="shape-rendering:geometricPrecision; text-rendering:geometricPrecision; image-rendering:optimizeQuality; fill-rule:evenodd; clip-rule:evenodd"
viewBox="0 0 13546.7 8978.5"
 xmlns:xlink="http://www.w3.org/1999/xlink"
 xmlns:xodm="http://www.corel.com/coreldraw/odm/2003">
 <defs>
  <style type="text/css">
   <![CDATA[
    .fil2 {fill:none;fill-rule:nonzero}
    .fil1 {fill:#009846;fill-rule:nonzero}
    .fil3 {fill:#333333;fill-rule:nonzero}
    .fil0 {fill:#4D4D4D;fill-rule:nonzero}
   ]]>
  </style>
   <clipPath id="id0" style="clip-rule:nonzero">
    <path d="M1124.22 8978.51l11298.27 0c618.31,0 1124.2,-505.89 1124.2,-1124.2l0 -6730.1c0,-618.31 -505.89,-1124.2 -1124.2,-1124.2l-11298.27 0c-618.31,0 -1124.2,505.89 -1124.2,1124.2l0 6730.1c0,618.31 505.89,1124.2 1124.2,1124.2z"/>
   </clipPath>
 </defs>
 <g id="Layer_x0020_1">
  <metadata id="CorelCorpID_0Corel-Layer"/>
  <path class="fil0" d="M1124.22 8978.51l11298.27 0c618.31,0 1124.2,-505.89 1124.2,-1124.2l0 -6730.1c0,-618.31 -505.89,-1124.2 -1124.2,-1124.2l-11298.27 0c-618.31,0 -1124.2,505.89 -1124.2,1124.2l0 6730.1c0,618.31 505.89,1124.2 1124.2,1124.2z"/>
  <g style="clip-path:url(#id0)">
   <g id="_2397235608720">
    <rect class="fil1" x="0.01" y="0.02" width="13546.67" height="2221.65"/>
   </g>
  </g>
  <path class="fil2" d="M1124.22 8978.51l11298.27 0c618.31,0 1124.2,-505.89 1124.2,-1124.2l0 -6730.1c0,-618.31 -505.89,-1124.2 -1124.2,-1124.2l-11298.27 0c-618.31,0 -1124.2,505.89 -1124.2,1124.2l0 6730.1c0,618.31 505.89,1124.2 1124.2,1124.2z"/>
  <rect class="fil1" x="4804.38" y="4155.58" width="3937.95" height="2677.82"/>
  <g id="_2397235605936">
   <path class="fil3" d="M3680.85 6820.55l-1948.13 0 0 0c-380.89,-851.96 -380.89,-1825.86 0,-2677.82l0 0 1948.13 0 0 2677.82z"/>
   <path class="fil3" d="M9865.85 6820.55l1948.13 0 0 0c380.89,-851.96 380.89,-1825.86 0,-2677.82l0 0 -1948.13 0 0 2677.82z"/>
  </g>
 </g>
</svg>
